<svg width="38" height="38" viewBox="0 0 38 38" fill="none" xmlns="http://www.w3.org/2000/svg">
<circle cx="19" cy="19" r="19" fill="#27393A"/>
<path d="M18.5 22.125V23.9375" stroke="#FCFDFD" stroke-width="1.5" stroke-linecap="round" stroke-linejoin="round"/>
<path d="M7.625 17.2917L7.80973 20.7516C8.00821 25.1181 8.10745 27.3015 9.50861 28.6403C10.9098 29.9792 13.0953 29.9792 17.4664 29.9792H19.5336C23.9046 29.9792 26.0903 29.9792 27.4915 28.6403C28.8925 27.3015 28.9918 25.1181 29.1902 20.7516L29.375 17.2917" stroke="#FCFDFD" stroke-width="1.5" stroke-linecap="round" stroke-linejoin="round"/>
<path d="M7.44051 16.6187C9.49383 20.5232 14.125 22.125 18.5002 22.125C22.8753 22.125 27.5065 20.5232 29.5598 16.6187C30.54 14.7548 29.7978 11.25 27.3838 11.25H9.6165C7.20252 11.25 6.46037 14.7548 7.44051 16.6187Z" stroke="#FCFDFD" stroke-width="1.5"/>
<path d="M23.3332 11.2499L23.2265 10.8765C22.6948 9.01558 22.429 8.08514 21.7961 7.55294C21.1631 7.02075 20.3225 7.02075 18.6411 7.02075H18.3585C16.6772 7.02075 15.8365 7.02075 15.2036 7.55294C14.5707 8.08514 14.3049 9.01558 13.7732 10.8765L13.6665 11.2499" stroke="#FCFDFD" stroke-width="1.5"/>
</svg>
