<svg width="38" height="38" viewBox="0 0 38 38" fill="none" xmlns="http://www.w3.org/2000/svg">
<circle cx="19" cy="19" r="19" fill="#27393A"/>
<path d="M16.0835 25.75H20.9168" stroke="#FCFDFD" stroke-width="1.5" stroke-linecap="round" stroke-linejoin="round"/>
<path d="M6.8411 19.9664C6.41453 17.1905 6.20125 15.8026 6.72604 14.5722C7.25082 13.3419 8.41512 12.5 10.7437 10.8164L12.4835 9.55841C15.3803 7.46397 16.8286 6.41675 18.4998 6.41675C20.1711 6.41675 21.6194 7.46397 24.5161 9.55841L26.256 10.8164C28.5846 12.5 29.7488 13.3419 30.2736 14.5722C30.7984 15.8026 30.5851 17.1905 30.1586 19.9664L29.7949 22.3334C29.1901 26.2683 28.8878 28.2359 27.4765 29.4096C26.0653 30.5834 24.0022 30.5834 19.8759 30.5834H17.1238C12.9975 30.5834 10.9344 30.5834 9.52313 29.4096C8.1119 28.2359 7.80956 26.2683 7.20486 22.3334L6.8411 19.9664Z" stroke="#FCFDFD" stroke-width="1.5" stroke-linejoin="round"/>
</svg>
