<svg width="25" height="25" viewBox="0 0 25 25" fill="none" xmlns="http://www.w3.org/2000/svg">
<g clip-path="url(#clip0_38_625)">
<path d="M6.64592 17.6735L6.63919 17.6646L6.63219 17.6558L6.62583 17.6479C4.4862 14.9773 3.09519 13.241 3.09375 9.8644C3.11136 8.65018 3.36788 7.45129 3.8487 6.33615C4.3302 5.21942 5.02718 4.20859 5.89976 3.36151C6.77234 2.51444 7.8034 1.84774 8.93392 1.39957C10.0628 0.952039 11.2688 0.731186 12.483 0.749599C14.9124 0.822698 17.2267 1.80198 18.9707 3.495C20.7106 5.18409 21.7573 7.46158 21.9062 9.88143C21.9001 13.1348 20.547 14.8589 18.5551 17.397C18.4866 17.4844 18.4172 17.5728 18.3472 17.6622L18.3418 17.6691L18.3365 17.6761C17.0886 19.3475 15.5848 20.9491 14.1282 22.5005C13.5778 23.0867 13.0342 23.6656 12.5137 24.2385C12.513 24.2392 12.5122 24.2399 12.5114 24.2405C12.5093 24.2421 12.5071 24.2434 12.5046 24.2445C12.5007 24.2462 12.4965 24.2471 12.4922 24.2471C12.4879 24.2471 12.4837 24.2462 12.4798 24.2445L12.1814 24.9326L12.4798 24.2445C12.4764 24.243 12.4733 24.241 12.4707 24.2385C11.9574 23.6736 11.4223 23.1023 10.8803 22.5236C9.42098 20.9653 7.91195 19.3541 6.64592 17.6735ZM9.91313 14.0276C10.6788 14.5392 11.5791 14.8123 12.5 14.8123C13.7349 14.8123 14.9192 14.3217 15.7925 13.4485C16.6657 12.5753 17.1562 11.3909 17.1562 10.156C17.1562 9.2351 16.8832 8.33486 16.3715 7.56915C15.8599 6.80343 15.1327 6.20663 14.2819 5.85421C13.4311 5.50179 12.4948 5.40958 11.5916 5.58924C10.6884 5.7689 9.85872 6.21237 9.20753 6.86355C8.55635 7.51474 8.11288 8.34441 7.93322 9.24763C7.75356 10.1509 7.84577 11.0871 8.19819 11.9379C8.55061 12.7887 9.14741 13.5159 9.91313 14.0276Z" stroke="#27393A" stroke-width="1.5"/>
</g>
<defs>
<clipPath id="clip0_38_625">
<rect width="25" height="25" fill="white"/>
</clipPath>
</defs>
</svg>
