<svg width="20" height="20" viewBox="0 0 20 20" fill="none" xmlns="http://www.w3.org/2000/svg">
<path d="M19.8319 18.102L18.4649 14H16.9649L17.7979 18H3.13188L3.96488 14H2.46488L1.09688 18.102C0.749879 19.146 1.36488 20 2.46488 20H18.4649C19.5649 20 20.1799 19.146 19.8319 18.102ZM15.4649 5C15.4649 3.67392 14.9381 2.40215 14.0004 1.46447C13.0627 0.526784 11.791 0 10.4649 0C9.1388 0 7.86703 0.526784 6.92934 1.46447C5.99166 2.40215 5.46488 3.67392 5.46488 5C5.46488 9.775 10.4649 15 10.4649 15C10.4649 15 15.4649 9.775 15.4649 5ZM7.76488 5.06C7.76514 4.34409 8.04972 3.65759 8.55604 3.15146C9.06236 2.64533 9.74897 2.361 10.4649 2.361C11.1808 2.361 11.8675 2.64541 12.3737 3.15167C12.88 3.65792 13.1644 4.34455 13.1644 5.0605C13.1644 5.77645 12.88 6.46308 12.3737 6.96933C11.8675 7.47559 11.1808 7.76 10.4649 7.76C9.74879 7.76 9.06204 7.47554 8.55569 6.96919C8.04934 6.46284 7.76488 5.77608 7.76488 5.06Z" fill="#27393A"/>
</svg>
