<svg width="20" height="20" viewBox="0 0 20 20" fill="none" xmlns="http://www.w3.org/2000/svg">
<path d="M5.7875 20C4.18083 20 2.81458 19.4371 1.68875 18.3113C0.562916 17.1854 0 15.8162 0 14.2037C0 13.5304 0.115417 12.8746 0.34625 12.2362C0.577083 11.5979 0.910417 11.0167 1.34625 10.4925L5.73625 5.22125L3.875 1.4525C3.69917 1.11583 3.70667 0.789584 3.8975 0.47375C4.08917 0.157917 4.37667 0 4.76 0H15.24C15.6233 0 15.9108 0.157917 16.1025 0.47375C16.2942 0.789584 16.3017 1.11583 16.125 1.4525L14.2638 5.22125L18.6538 10.4925C19.0896 11.0167 19.4229 11.5979 19.6537 12.2362C19.8846 12.8737 20 13.5296 20 14.2037C20 15.8162 19.4375 17.1854 18.3125 18.3113C17.1875 19.4371 15.8208 20 14.2125 20H5.7875ZM9.99625 14.35C9.43958 14.35 8.96458 14.1521 8.57125 13.7563C8.17792 13.3604 7.98125 12.8842 7.98125 12.3275C7.98125 11.7708 8.17917 11.2958 8.575 10.9025C8.97083 10.5092 9.4475 10.3125 10.005 10.3125C10.5625 10.3125 11.0375 10.5108 11.43 10.9075C11.8225 11.3042 12.0192 11.7804 12.02 12.3363C12.0208 12.8921 11.8225 13.3671 11.425 13.7612C11.0275 14.1554 10.5512 14.3521 9.99625 14.3512M6.8875 4.6875H13.1375L14.8438 1.25H5.15625L6.8875 4.6875ZM5.7875 18.75H14.2125C15.48 18.75 16.5533 18.3067 17.4325 17.42C18.3108 16.5317 18.75 15.4604 18.75 14.2062C18.75 13.6779 18.6613 13.1633 18.4838 12.6625C18.3063 12.1617 18.0458 11.7075 17.7025 11.3L13.2275 5.9375H6.8025L2.3225 11.2937C1.9775 11.7004 1.7125 12.1567 1.5275 12.6625C1.3425 13.1675 1.25 13.6838 1.25 14.2113C1.25 15.4629 1.69375 16.5325 2.58125 17.42C3.46792 18.3067 4.53667 18.75 5.7875 18.75Z" fill="#27393A"/>
</svg>
