<svg width="21" height="23" viewBox="0 0 21 23" fill="none" xmlns="http://www.w3.org/2000/svg">
<path d="M17.375 21.9166H3.62503C3.29567 21.9166 2.96956 21.8515 2.66543 21.7251C2.3613 21.5987 2.08514 21.4134 1.85283 21.18C1.62052 20.9465 1.43663 20.6694 1.31173 20.3647C1.18683 20.0599 1.12338 19.7335 1.12503 19.4041V7.67911C1.12503 7.28119 1.31253 6.91453 1.62503 6.6739L9.7292 1.33432C9.94523 1.17123 10.2085 1.08301 10.4792 1.08301C10.7499 1.08301 11.0132 1.17123 11.2292 1.33432L19.375 6.6739C19.6875 6.91453 19.875 7.28119 19.875 7.67911V19.4041C19.8767 19.7335 19.8132 20.0599 19.6883 20.3647C19.5634 20.6694 19.3795 20.9465 19.1472 21.18C18.9149 21.4134 18.6388 21.5987 18.3346 21.7251C18.0305 21.8515 17.7044 21.9166 17.375 21.9166Z" stroke="#27393A" stroke-width="1.5" stroke-miterlimit="10" stroke-linejoin="round"/>
<path d="M8.20833 11.5H12.7917C13.25 11.5 13.625 11.875 13.625 12.3333V21.9167H7.375V12.3333C7.375 11.875 7.75 11.5 8.20833 11.5Z" stroke="#27393A" stroke-width="1.5" stroke-miterlimit="10" stroke-linejoin="round"/>
</svg>
