<svg width="22" height="22" viewBox="0 0 22 22" fill="none" xmlns="http://www.w3.org/2000/svg">
<g clip-path="url(#clip0_604_6112)">
<path d="M6.9215 20.75H3.2C2.68283 20.75 2.18684 20.5446 1.82114 20.1789C1.45545 19.8132 1.25 19.3172 1.25 18.8V3.2C1.25 2.68283 1.45545 2.18684 1.82114 1.82114C2.18684 1.45545 2.68283 1.25 3.2 1.25H18.8C19.3172 1.25 19.8132 1.45545 20.1789 1.82114C20.5446 2.18684 20.75 2.68283 20.75 3.2V7.625M20.75 13.25L13.685 20.315L10.49 20.75L10.94 17.555L17.99 10.49L20.75 13.25Z" stroke="#FCFDFD" stroke-linecap="round" stroke-linejoin="round"/>
<path d="M1.25 11.2459C4.57022 10.6491 7.99453 11.1553 11 12.6874M14.021 7.69238C14.5183 7.69238 14.9952 7.49484 15.3468 7.14321C15.6985 6.79158 15.896 6.31466 15.896 5.81738C15.896 5.3201 15.6985 4.84319 15.3468 4.49156C14.9952 4.13993 14.5183 3.94238 14.021 3.94238C13.5237 3.94238 13.0468 4.13993 12.6952 4.49156C12.3435 4.84319 12.146 5.3201 12.146 5.81738C12.146 6.31466 12.3435 6.79158 12.6952 7.14321C13.0468 7.49484 13.5237 7.69238 14.021 7.69238Z" stroke="#FCFDFD" stroke-linecap="round" stroke-linejoin="round"/>
</g>
<defs>
<clipPath id="clip0_604_6112">
<rect width="21" height="21" fill="white" transform="translate(0.5 0.5)"/>
</clipPath>
</defs>
</svg>
