<svg width="22" height="26" viewBox="0 0 22 26" fill="none" xmlns="http://www.w3.org/2000/svg">
<path d="M1 20.476V10.1344C1 5.5927 1 3.32185 2.46446 1.91093C3.92894 0.5 6.28595 0.5 11 0.5C15.714 0.5 18.0711 0.5 19.5355 1.91093C21 3.32185 21 5.5927 21 10.1344V20.476C21 23.3584 21 24.7995 20.034 25.3154C18.1631 26.3143 14.654 22.9815 12.9875 21.978C12.021 21.396 11.5378 21.105 11 21.105C10.4622 21.105 9.979 21.396 9.0125 21.978C7.346 22.9815 3.83684 26.3143 1.96606 25.3154C1 24.7995 1 23.3584 1 20.476Z" stroke="#27393A" stroke-linecap="round" stroke-linejoin="round"/>
</svg>
