<svg width="44" height="58" viewBox="0 0 44 58" fill="none" xmlns="http://www.w3.org/2000/svg">
<path d="M21.5344 23.0073C21.2468 22.3129 20.6951 21.7614 20.001 21.4739C19.4802 21.2582 18.8202 21.2582 17.5 21.2582C16.1798 21.2582 15.5198 21.2582 14.999 21.4739C14.3048 21.7614 13.7532 22.3129 13.4657 23.0073C13.25 23.5279 13.25 24.188 13.25 25.5082V31.1668C9.73728 31.1158 7.74577 30.8542 6.40972 29.5129C4.75 27.8464 4.75 25.1644 4.75 19.8005V16.8367C4.75 14.1038 4.75 12.7374 5.32621 11.5545C5.90243 10.3716 6.97674 9.53273 9.12533 7.85491L10.542 6.74865C13.8845 4.13854 15.5558 2.8335 17.5 2.8335C19.4442 2.8335 21.1155 4.13854 24.458 6.74865L25.8746 7.85491C28.0233 9.53273 29.0975 10.3716 29.6738 11.5545C30.25 12.7374 30.25 14.1038 30.25 16.8367" stroke="#FCFDFD" stroke-width="1.5" stroke-linecap="round" stroke-linejoin="round"/>
<path d="M31.5 25V33M35.5 29H27.5" stroke="#FCFDFD" stroke-width="1.5" stroke-linecap="round" stroke-linejoin="round"/>
<path d="M41.5 29C41.5 23.4771 37.0228 19 31.5 19C25.9771 19 21.5 23.4771 21.5 29C21.5 34.5228 25.9771 39 31.5 39C37.0228 39 41.5 34.5228 41.5 29Z" stroke="#FCFDFD" stroke-width="1.5"/>
</svg>
