<svg width="30" height="30" viewBox="0 0 30 30" fill="none" xmlns="http://www.w3.org/2000/svg">
<path d="M15.2188 29.25C13.2575 29.25 11.4103 28.8753 9.67709 28.1258C7.94387 27.3753 6.43443 26.3567 5.14876 25.07C3.86309 23.7833 2.84448 22.2738 2.09293 20.5417C1.34137 18.8095 0.966648 16.9623 0.968759 15C0.968759 13.0324 1.34348 11.1836 2.09293 9.45358C2.84343 7.72247 3.86204 6.21461 5.14876 4.93C6.43548 3.64539 7.94493 2.62678 9.67709 1.87417C11.4103 1.12472 13.2575 0.75 15.2188 0.75C17.1863 0.75 19.0351 1.12472 20.7652 1.87417C22.4963 2.62467 24.0047 3.64328 25.2903 4.93C26.576 6.21672 27.5941 7.72458 28.3446 9.45358C29.094 11.1847 29.4688 13.0335 29.4688 15C29.4688 16.9612 29.094 18.8084 28.3446 20.5417C27.5941 22.2749 26.5755 23.7843 25.2888 25.07C24.002 26.3557 22.4942 27.3743 20.7652 28.1258C19.0362 28.8774 17.1874 29.2521 15.2188 29.25ZM15.2188 27.6793C16.1476 26.4855 16.914 25.3133 17.5178 24.1628C18.1205 23.0122 18.6108 21.7244 18.9887 20.2994H11.4488C11.8679 21.8046 12.3682 23.1325 12.9498 24.2831C13.5325 25.4336 14.2888 26.5657 15.2188 27.6793ZM13.2032 27.4418C12.4643 26.571 11.7898 25.4943 11.1797 24.2118C10.5696 22.9304 10.1157 21.6257 9.81801 20.2978H3.74593C4.6537 22.2664 5.9399 23.8814 7.60451 25.1428C9.27018 26.4032 11.1364 27.1695 13.2032 27.4418ZM17.2343 27.4418C19.3011 27.1695 21.1673 26.4032 22.833 25.1428C24.4976 23.8814 25.7838 22.2664 26.6916 20.2978H20.6211C20.22 21.6458 19.7149 22.9605 19.1058 24.2419C18.4957 25.5244 17.8719 26.5921 17.2343 27.4418ZM3.09993 18.7161H9.48868C9.36834 18.0659 9.2839 17.4325 9.23534 16.8161C9.18468 16.2007 9.15934 15.5953 9.15934 15C9.15934 14.4047 9.18415 13.7993 9.23376 13.1839C9.28337 12.5685 9.36782 11.9352 9.48709 11.2839H3.10151C2.92945 11.8328 2.79487 12.4308 2.69776 13.0778C2.60065 13.7238 2.55209 14.3646 2.55209 15C2.55209 15.6354 2.60012 16.2767 2.69618 16.9237C2.79223 17.5708 2.92681 18.1677 3.09993 18.7145M11.072 18.7145H19.3655C19.4858 18.0653 19.5703 17.4426 19.6188 16.8462C19.6695 16.2508 19.6948 15.6354 19.6948 15C19.6948 14.3646 19.67 13.7492 19.6204 13.1538C19.5708 12.5585 19.4864 11.9357 19.3671 11.2855H11.0704C10.9511 11.9347 10.8667 12.5574 10.8171 13.1538C10.7675 13.7492 10.7427 14.3646 10.7427 15C10.7427 15.6354 10.7675 16.2508 10.8171 16.8462C10.8667 17.4415 10.9527 18.0643 11.072 18.7145ZM20.9504 18.7145H27.3376C27.5096 18.1667 27.6442 17.5697 27.7413 16.9237C27.8374 16.2767 27.8854 15.6354 27.8854 15C27.8854 14.3646 27.8374 13.7233 27.7413 13.0763C27.6453 12.4292 27.5107 11.8323 27.3376 11.2855H20.9488C21.0692 11.9347 21.1536 12.5675 21.2022 13.1839C21.2528 13.8004 21.2782 14.4057 21.2782 15C21.2782 15.5943 21.2534 16.1996 21.2038 16.8161C21.1541 17.4325 21.0697 18.0659 20.9504 18.7161M20.6211 9.70217H26.6916C25.7638 7.69239 24.4929 6.07739 22.8789 4.85717C21.265 3.63694 19.3835 2.86058 17.2343 2.52808C17.9732 3.50025 18.6377 4.61228 19.2278 5.86417C19.8178 7.115 20.2823 8.39433 20.6211 9.70217ZM11.4488 9.70217H18.9887C18.5707 8.21595 18.055 6.87222 17.4418 5.671C16.8285 4.46978 16.0875 3.353 15.2188 2.32067C14.35 3.35194 13.609 4.46872 12.9958 5.671C12.3825 6.87328 11.8658 8.217 11.4488 9.70217ZM3.74751 9.70217H9.81801C10.1568 8.39539 10.6213 7.11606 11.2113 5.86417C11.8014 4.61228 12.4659 3.50025 13.2048 2.52808C11.0366 2.86164 9.15037 3.64275 7.54593 4.87142C5.94148 6.10219 4.67481 7.71192 3.74593 9.70058" fill="#27393A"/>
</svg>
