<svg width="19" height="23" viewBox="0 0 19 23" fill="none" xmlns="http://www.w3.org/2000/svg">
<path d="M8.08594 0.671875C8.45052 0.307292 8.86979 0.125 9.34375 0.125C9.81771 0.125 10.2188 0.307292 10.5469 0.671875C10.9115 1 11.0938 1.40104 11.0938 1.875C11.0938 1.875 11.0938 1.94792 11.0938 2.09375C12.625 2.49479 13.8828 3.35156 14.8672 4.66406C15.8516 5.97656 16.3438 7.45312 16.3438 9.09375V16.75C16.3438 17.3333 16.6354 17.625 17.2188 17.625H18.0938V19.375H11.8047C11.9141 19.6667 11.9688 19.9583 11.9688 20.25C11.9688 20.9792 11.7135 21.599 11.2031 22.1094C10.6927 22.6198 10.0729 22.875 9.34375 22.875C8.61458 22.875 7.99479 22.6198 7.48438 22.1094C6.97396 21.599 6.71875 20.9792 6.71875 20.25C6.71875 19.9583 6.77344 19.6667 6.88281 19.375H0.59375V17.625H1.46875C2.05208 17.625 2.34375 17.3333 2.34375 16.75V8.875C2.34375 7.27083 2.83594 5.84896 3.82031 4.60938C4.84115 3.33333 6.09896 2.49479 7.59375 2.09375C7.59375 1.94792 7.59375 1.875 7.59375 1.875C7.59375 1.40104 7.75781 1 8.08594 0.671875ZM8.96094 3.625C7.57552 3.73438 6.40885 4.29948 5.46094 5.32031C4.54948 6.30469 4.09375 7.48958 4.09375 8.875V16.75C4.09375 17.0417 4.03906 17.3333 3.92969 17.625H14.7578C14.6484 17.3333 14.5938 17.0417 14.5938 16.75V9.09375C14.5938 7.63542 14.1016 6.3776 13.1172 5.32031C12.1328 4.22656 10.9297 3.66146 9.50781 3.625H9.34375H9.125H8.96094ZM10.2188 20.25C10.2188 19.6667 9.92708 19.375 9.34375 19.375C8.76042 19.375 8.46875 19.6667 8.46875 20.25C8.46875 20.8333 8.76042 21.125 9.34375 21.125C9.92708 21.125 10.2188 20.8333 10.2188 20.25Z" fill="#202224"/>
</svg>
