<svg width="21" height="21" viewBox="0 0 21 21" fill="none" xmlns="http://www.w3.org/2000/svg">
<path d="M11.375 3.5H2.625" stroke="#27393A" stroke-linecap="round" stroke-linejoin="round"/>
<path d="M9.625 16.625H2.625" stroke="#27393A" stroke-linecap="round" stroke-linejoin="round"/>
<path d="M18.375 16.625H14.875" stroke="#27393A" stroke-linecap="round" stroke-linejoin="round"/>
<path d="M18.375 10.0625H9.625" stroke="#27393A" stroke-linecap="round" stroke-linejoin="round"/>
<path d="M18.375 3.5H16.625" stroke="#27393A" stroke-linecap="round" stroke-linejoin="round"/>
<path d="M4.375 10.0625H2.625" stroke="#27393A" stroke-linecap="round" stroke-linejoin="round"/>
<path d="M12.6875 1.75C13.0952 1.75 13.299 1.75 13.4599 1.8166C13.6742 1.90541 13.8446 2.07575 13.9334 2.29016C14 2.45095 14 2.6548 14 3.0625V3.9375C14 4.3452 14 4.54905 13.9334 4.70984C13.8446 4.92425 13.6742 5.09459 13.4599 5.1834C13.299 5.25 13.0952 5.25 12.6875 5.25C12.2798 5.25 12.076 5.25 11.9151 5.1834C11.7008 5.09459 11.5304 4.92425 11.4416 4.70984C11.375 4.54905 11.375 4.3452 11.375 3.9375V3.0625C11.375 2.6548 11.375 2.45095 11.4416 2.29016C11.5304 2.07575 11.7008 1.90541 11.9151 1.8166C12.076 1.75 12.2798 1.75 12.6875 1.75Z" stroke="#27393A" stroke-linecap="round" stroke-linejoin="round"/>
<path d="M10.9375 14.875C11.3452 14.875 11.549 14.875 11.7099 14.9416C11.9242 15.0304 12.0946 15.2008 12.1834 15.4151C12.25 15.576 12.25 15.7798 12.25 16.1875V17.0625C12.25 17.4702 12.25 17.674 12.1834 17.8349C12.0946 18.0492 11.9242 18.2196 11.7099 18.3084C11.549 18.375 11.3452 18.375 10.9375 18.375C10.5298 18.375 10.326 18.375 10.1651 18.3084C9.95076 18.2196 9.7804 18.0492 9.69159 17.8349C9.625 17.674 9.625 17.4702 9.625 17.0625V16.1875C9.625 15.7798 9.625 15.576 9.69159 15.4151C9.7804 15.2008 9.95076 15.0304 10.1651 14.9416C10.326 14.875 10.5298 14.875 10.9375 14.875Z" stroke="#27393A" stroke-linecap="round" stroke-linejoin="round"/>
<path d="M8.3125 8.3125C8.7202 8.3125 8.92404 8.3125 9.08486 8.37911C9.29924 8.46791 9.4696 8.63825 9.55841 8.85264C9.625 9.01346 9.625 9.21734 9.625 9.625V10.5C9.625 10.9077 9.625 11.1115 9.55841 11.2724C9.4696 11.4867 9.29924 11.6571 9.08486 11.7459C8.92404 11.8125 8.7202 11.8125 8.3125 11.8125C7.9048 11.8125 7.70095 11.8125 7.54016 11.7459C7.32575 11.6571 7.15541 11.4867 7.06661 11.2724C7 11.1115 7 10.9077 7 10.5V9.625C7 9.21734 7 9.01346 7.06661 8.85264C7.15541 8.63825 7.32575 8.46791 7.54016 8.37911C7.70095 8.3125 7.9048 8.3125 8.3125 8.3125Z" stroke="#27393A" stroke-linecap="round" stroke-linejoin="round"/>
</svg>
