<svg width="61" height="60" viewBox="0 0 61 60" fill="none" xmlns="http://www.w3.org/2000/svg">
<path opacity="0.21" d="M37.5 0C50.2025 0 60.5 10.2975 60.5 23V37C60.5 49.7025 50.2025 60 37.5 60H23.5C10.7975 60 0.5 49.7025 0.5 37V23C0.5 10.2975 10.7975 0 23.5 0H37.5Z" fill="#8280FF"/>
<path opacity="0.587821" d="M38.4996 24.667C40.7088 24.667 42.4996 26.4579 42.4996 28.667C42.4995 30.876 40.7087 32.667 38.4996 32.667C36.2908 32.6668 34.4998 30.8759 34.4996 28.667C34.4996 26.458 36.2906 24.6672 38.4996 24.667ZM26.4996 18C29.445 18 31.8334 20.3876 31.8336 23.333C31.8336 26.2785 29.4452 28.667 26.4996 28.667C23.5543 28.6668 21.1666 26.2784 21.1666 23.333C21.1668 20.3877 23.5544 18.0002 26.4996 18Z" fill="#8280FF"/>
<path d="M26.4775 31.333C32.8612 31.333 38.1062 34.3905 38.4971 40.9326C38.5126 41.1932 38.4967 42 37.4951 42H15.4697C15.1353 41.9996 14.4728 41.2782 14.501 40.9316C15.0179 34.5683 20.1825 31.3331 26.4775 31.333ZM37.9688 34.002C42.5104 34.0518 46.2188 36.3466 46.498 41.1992C46.5093 41.3947 46.4978 42 45.7744 42H40.6338C40.6338 38.9993 39.6417 36.23 37.9688 34.002Z" fill="#8280FF"/>
</svg>
