<svg width="61" height="60" viewBox="0 0 61 60" fill="none" xmlns="http://www.w3.org/2000/svg">
<path opacity="0.3" d="M37.5 0C50.2025 0 60.5 10.2975 60.5 23V37C60.5 49.7025 50.2025 60 37.5 60H23.5C10.7975 60 0.5 49.7025 0.5 37V23C0.5 10.2975 10.7975 0 23.5 0H37.5Z" fill="#FF9066"/>
<path opacity="0.78" fill-rule="evenodd" clip-rule="evenodd" d="M29.1312 23.8093C29.1512 23.5488 29.3684 23.3477 29.6297 23.3477H30.0475C30.3044 23.3477 30.5195 23.5423 30.545 23.7979L31.1667 30.0143L35.5814 32.537C35.7372 32.626 35.8333 32.7917 35.8333 32.9712V33.3597C35.8333 33.6894 35.5199 33.9288 35.2018 33.8421L28.8987 32.123C28.6673 32.0599 28.5133 31.8414 28.5317 31.6023L29.1312 23.8093Z" fill="#FF9066"/>
<path opacity="0.901274" d="M22.3525 15.1904C22.4479 14.7908 22.9575 14.6698 23.2217 14.9844L25.0205 17.1289C26.7036 16.4122 28.5552 16.0137 30.5 16.0137C38.2319 16.0137 44.4998 22.2818 44.5 30.0137C44.5 37.7457 38.232 44.0137 30.5 44.0137C22.768 44.0137 16.5 37.7457 16.5 30.0137C16.5 28.7006 16.6805 27.4297 17.0186 26.2246L19.5859 26.9453C19.3086 27.9342 19.167 28.9632 19.167 30.0137C19.167 36.2729 24.2408 41.3477 30.5 41.3477C36.7592 41.3477 41.833 36.2729 41.833 30.0137C41.8328 23.7546 36.7591 18.6807 30.5 18.6807C29.2318 18.6807 27.9968 18.8891 26.832 19.2871L28.6328 21.4336C28.8974 21.7489 28.6892 22.2306 28.2783 22.2539L21.2334 22.6533C20.8992 22.6722 20.6411 22.3637 20.7188 22.0381L22.3525 15.1904Z" fill="#FF9066"/>
</svg>
