<svg width="18" height="17" viewBox="0 0 18 17" fill="none" xmlns="http://www.w3.org/2000/svg">
<path d="M9 10.9648V12.1973" stroke="white" stroke-width="1.2" stroke-linecap="round" stroke-linejoin="round"/>
<path d="M1.60498 7.67822L1.7306 10.0309C1.86556 13.0002 1.93305 14.4848 2.88584 15.3952C3.83862 16.3057 5.3248 16.3057 8.29713 16.3057H9.70283C12.6751 16.3057 14.1614 16.3057 15.1142 15.3952C16.0669 14.4848 16.1344 13.0002 16.2693 10.0309L16.395 7.67822" stroke="white" stroke-width="1.2" stroke-linecap="round" stroke-linejoin="round"/>
<path d="M1.4796 7.22057C2.87586 9.87562 6.02508 10.9648 9.00017 10.9648C11.9753 10.9648 15.1245 9.87562 16.5207 7.22057C17.1873 5.95312 16.6826 3.56982 15.0411 3.56982H2.95928C1.31778 3.56982 0.813108 5.95312 1.4796 7.22057Z" stroke="white" stroke-width="1.2"/>
<path d="M12.2867 3.57017L12.2142 3.31622C11.8526 2.05082 11.6719 1.41812 11.2415 1.05622C10.8111 0.694336 10.2395 0.694336 9.09612 0.694336H8.90393C7.76066 0.694336 7.18899 0.694336 6.75862 1.05622C6.32825 1.41812 6.14747 2.05082 5.78593 3.31622L5.71338 3.57017" stroke="white" stroke-width="1.2"/>
</svg>
