<svg width="18" height="18" viewBox="0 0 18 18" fill="none" xmlns="http://www.w3.org/2000/svg">
<path d="M9 11.4648V12.6973" stroke="#27393A" stroke-width="1.2" stroke-linecap="round" stroke-linejoin="round"/>
<path d="M1.60498 8.17822L1.7306 10.5309C1.86556 13.5002 1.93305 14.9848 2.88584 15.8952C3.83862 16.8057 5.3248 16.8057 8.29713 16.8057H9.70283C12.6751 16.8057 14.1614 16.8057 15.1142 15.8952C16.0669 14.9848 16.1344 13.5002 16.2693 10.5309L16.395 8.17822" stroke="#27393A" stroke-width="1.2" stroke-linecap="round" stroke-linejoin="round"/>
<path d="M1.4796 7.72057C2.87586 10.3756 6.02508 11.4648 9.00017 11.4648C11.9753 11.4648 15.1245 10.3756 16.5207 7.72057C17.1873 6.45312 16.6826 4.06982 15.0411 4.06982H2.95928C1.31778 4.06982 0.813108 6.45312 1.4796 7.72057Z" stroke="#27393A" stroke-width="1.2"/>
<path d="M12.2867 4.07017L12.2142 3.81622C11.8526 2.55082 11.6719 1.91812 11.2415 1.55622C10.8111 1.19434 10.2395 1.19434 9.09612 1.19434H8.90393C7.76066 1.19434 7.18899 1.19434 6.75862 1.55622C6.32825 1.91812 6.14747 2.55082 5.78593 3.81622L5.71338 4.07017" stroke="#27393A" stroke-width="1.2"/>
</svg>
