<svg width="20" height="20" viewBox="0 0 20 20" fill="none" xmlns="http://www.w3.org/2000/svg">
<path d="M8.4165 14.75H11.5832" stroke="#27393A" stroke-width="1.2" stroke-linecap="round" stroke-linejoin="round"/>
<path d="M2.36168 10.9608C2.08221 9.14215 1.94247 8.23287 2.2863 7.42676C2.63012 6.62063 3.39294 6.06909 4.91857 4.966L6.05845 4.14183C7.95631 2.76961 8.90521 2.0835 10.0002 2.0835C11.0951 2.0835 12.044 2.76961 13.9419 4.14183L15.0818 4.966C16.6074 6.06909 17.3702 6.62063 17.714 7.42676C18.0578 8.23287 17.9181 9.14215 17.6386 10.9608L17.4003 12.5116C17.0041 15.0897 16.806 16.3788 15.8815 17.1478C14.9569 17.9168 13.6052 17.9168 10.9017 17.9168H9.09861C6.39517 17.9168 5.04347 17.9168 4.11887 17.1478C3.19428 16.3788 2.99618 15.0897 2.6 12.5116L2.36168 10.9608Z" stroke="#27393A" stroke-width="1.2" stroke-linejoin="round"/>
</svg>
