<svg width="26" height="25" viewBox="0 0 26 25" fill="none" xmlns="http://www.w3.org/2000/svg">
<path d="M20.1289 8.20312C19.9859 10.189 18.5127 11.7188 16.9063 11.7188C15.2998 11.7188 13.8243 10.1895 13.6836 8.20312C13.5371 6.13721 14.9712 4.6875 16.9063 4.6875C18.8413 4.6875 20.2754 6.1748 20.1289 8.20312Z" stroke="white" stroke-linecap="round" stroke-linejoin="round"/>
<path d="M16.9061 14.8438C13.7239 14.8438 10.6639 16.4243 9.89727 19.5024C9.7957 19.9097 10.0511 20.3125 10.4695 20.3125H23.3431C23.7615 20.3125 24.0154 19.9097 23.9153 19.5024C23.1487 16.375 20.0887 14.8438 16.9061 14.8438Z" stroke="white" stroke-miterlimit="10"/>
<path d="M10.2654 9.0791C10.1512 10.665 8.96073 11.9141 7.67753 11.9141C6.39433 11.9141 5.20194 10.6655 5.08964 9.0791C4.97294 7.4292 6.13163 6.25 7.67753 6.25C9.22343 6.25 10.3821 7.45947 10.2654 9.0791Z" stroke="white" stroke-linecap="round" stroke-linejoin="round"/>
<path d="M10.5586 14.9414C9.67724 14.5376 8.70653 14.3823 7.67772 14.3823C5.13866 14.3823 2.69237 15.6445 2.07958 18.103C1.99901 18.4282 2.20311 18.75 2.5371 18.75H8.01952" stroke="white" stroke-miterlimit="10" stroke-linecap="round"/>
</svg>
