<svg width="22" height="23" viewBox="0 0 22 23" fill="none" xmlns="http://www.w3.org/2000/svg">
<path d="M4.71432 10.3212C4.71432 9.80026 4.92127 9.30063 5.28965 8.93226C5.65802 8.56388 6.15765 8.35693 6.67861 8.35693C7.19957 8.35693 7.69919 8.56388 8.06757 8.93226C8.43594 9.30063 8.64289 9.80026 8.64289 10.3212C8.64289 10.8422 8.43594 11.3418 8.06757 11.7102C7.69919 12.0786 7.19957 12.2855 6.67861 12.2855C6.15765 12.2855 5.65802 12.0786 5.28965 11.7102C4.92127 11.3418 4.71432 10.8422 4.71432 10.3212ZM6.67861 9.53551C6.47022 9.53551 6.27037 9.61829 6.12302 9.76564C5.97567 9.91299 5.89289 10.1128 5.89289 10.3212C5.89289 10.5296 5.97567 10.7295 6.12302 10.8768C6.27037 11.0242 6.47022 11.1069 6.67861 11.1069C6.88699 11.1069 7.08684 11.0242 7.23419 10.8768C7.38154 10.7295 7.46432 10.5296 7.46432 10.3212C7.46432 10.1128 7.38154 9.91299 7.23419 9.76564C7.08684 9.61829 6.88699 9.53551 6.67861 9.53551ZM6.67861 13.8569C6.15765 13.8569 5.65802 14.0639 5.28965 14.4323C4.92127 14.8006 4.71432 15.3003 4.71432 15.8212C4.71432 16.3422 4.92127 16.8418 5.28965 17.2102C5.65802 17.5786 6.15765 17.7855 6.67861 17.7855C7.19957 17.7855 7.69919 17.5786 8.06757 17.2102C8.43594 16.8418 8.64289 16.3422 8.64289 15.8212C8.64289 15.3003 8.43594 14.8006 8.06757 14.4323C7.69919 14.0639 7.19957 13.8569 6.67861 13.8569ZM5.89289 15.8212C5.89289 15.6128 5.97567 15.413 6.12302 15.2656C6.27037 15.1183 6.47022 15.0355 6.67861 15.0355C6.88699 15.0355 7.08684 15.1183 7.23419 15.2656C7.38154 15.413 7.46432 15.6128 7.46432 15.8212C7.46432 16.0296 7.38154 16.2295 7.23419 16.3768C7.08684 16.5242 6.88699 16.6069 6.67861 16.6069C6.47022 16.6069 6.27037 16.5242 6.12302 16.3768C5.97567 16.2295 5.89289 16.0296 5.89289 15.8212ZM10.2143 10.1248C10.2143 9.9685 10.2764 9.81862 10.3869 9.7081C10.4974 9.59759 10.6473 9.53551 10.8036 9.53551H16.6965C16.8528 9.53551 17.0026 9.59759 17.1132 9.7081C17.2237 9.81862 17.2858 9.9685 17.2858 10.1248C17.2858 10.2811 17.2237 10.431 17.1132 10.5415C17.0026 10.652 16.8528 10.7141 16.6965 10.7141H10.8036C10.6473 10.7141 10.4974 10.652 10.3869 10.5415C10.2764 10.431 10.2143 10.2811 10.2143 10.1248ZM10.8036 15.0355C10.6473 15.0355 10.4974 15.0976 10.3869 15.2081C10.2764 15.3186 10.2143 15.4685 10.2143 15.6248C10.2143 15.7811 10.2764 15.931 10.3869 16.0415C10.4974 16.152 10.6473 16.2141 10.8036 16.2141H16.6965C16.8528 16.2141 17.0026 16.152 17.1132 16.0415C17.2237 15.931 17.2858 15.7811 17.2858 15.6248C17.2858 15.4685 17.2237 15.3186 17.1132 15.2081C17.0026 15.0976 16.8528 15.0355 16.6965 15.0355H10.8036ZM4.71432 6.19622C4.71432 6.03993 4.77641 5.89004 4.88692 5.77953C4.99743 5.66902 5.14732 5.60693 5.30361 5.60693H16.6965C16.8528 5.60693 17.0026 5.66902 17.1132 5.77953C17.2237 5.89004 17.2858 6.03993 17.2858 6.19622C17.2858 6.35251 17.2237 6.50239 17.1132 6.61291C17.0026 6.72342 16.8528 6.78551 16.6965 6.78551H5.30361C5.14732 6.78551 4.99743 6.72342 4.88692 6.61291C4.77641 6.50239 4.71432 6.35251 4.71432 6.19622ZM5.30361 2.85693C4.52217 2.85693 3.77273 3.16736 3.22017 3.71992C2.6676 4.27249 2.35718 5.02192 2.35718 5.80336V17.1962C2.35718 17.9777 2.6676 18.7271 3.22017 19.2797C3.77273 19.8322 4.52217 20.1426 5.30361 20.1426H16.6965C17.4779 20.1426 18.2273 19.8322 18.7799 19.2797C19.3325 18.7271 19.6429 17.9777 19.6429 17.1962V5.80336C19.6429 5.02192 19.3325 4.27249 18.7799 3.71992C18.2273 3.16736 17.4779 2.85693 16.6965 2.85693H5.30361ZM3.53575 5.80336C3.53575 5.3345 3.72201 4.88484 4.05354 4.5533C4.38508 4.22176 4.83474 4.03551 5.30361 4.03551H16.6965C17.1653 4.03551 17.615 4.22176 17.9465 4.5533C18.2781 4.88484 18.4643 5.3345 18.4643 5.80336V17.1962C18.4643 17.6651 18.2781 18.1147 17.9465 18.4463C17.615 18.7778 17.1653 18.9641 16.6965 18.9641H5.30361C4.83474 18.9641 4.38508 18.7778 4.05354 18.4463C3.72201 18.1147 3.53575 17.6651 3.53575 17.1962V5.80336Z" fill="white"/>
</svg>
