<svg width="26" height="26" viewBox="0 0 26 26" fill="none" xmlns="http://www.w3.org/2000/svg">
<path d="M20.1289 8.70312C19.9859 10.689 18.5127 12.2188 16.9063 12.2188C15.2998 12.2188 13.8243 10.6895 13.6836 8.70312C13.5371 6.63721 14.9712 5.1875 16.9063 5.1875C18.8413 5.1875 20.2754 6.6748 20.1289 8.70312Z" stroke="#27393A" stroke-linecap="round" stroke-linejoin="round"/>
<path d="M16.9061 15.3438C13.7239 15.3438 10.6639 16.9243 9.89727 20.0024C9.7957 20.4097 10.0511 20.8125 10.4695 20.8125H23.3431C23.7615 20.8125 24.0154 20.4097 23.9153 20.0024C23.1487 16.875 20.0887 15.3438 16.9061 15.3438Z" stroke="#27393A" stroke-miterlimit="10"/>
<path d="M10.2654 9.5791C10.1512 11.165 8.96073 12.4141 7.67753 12.4141C6.39433 12.4141 5.20194 11.1655 5.08964 9.5791C4.97294 7.9292 6.13163 6.75 7.67753 6.75C9.22343 6.75 10.3821 7.95947 10.2654 9.5791Z" stroke="#27393A" stroke-linecap="round" stroke-linejoin="round"/>
<path d="M10.5586 15.4414C9.67724 15.0376 8.70653 14.8823 7.67772 14.8823C5.13866 14.8823 2.69237 16.1445 2.07958 18.603C1.99901 18.9282 2.20311 19.25 2.5371 19.25H8.01952" stroke="#27393A" stroke-miterlimit="10" stroke-linecap="round"/>
</svg>
