<svg width="20" height="19" viewBox="0 0 20 19" fill="none" xmlns="http://www.w3.org/2000/svg">
<path d="M8.4165 14.25H11.5832" stroke="white" stroke-width="1.2" stroke-linecap="round" stroke-linejoin="round"/>
<path d="M2.36168 10.4608C2.08221 8.64215 1.94247 7.73287 2.2863 6.92676C2.63012 6.12063 3.39294 5.56909 4.91857 4.466L6.05845 3.64183C7.95631 2.26961 8.90521 1.5835 10.0002 1.5835C11.0951 1.5835 12.044 2.26961 13.9419 3.64183L15.0818 4.466C16.6074 5.56909 17.3702 6.12063 17.714 6.92676C18.0578 7.73287 17.9181 8.64215 17.6386 10.4608L17.4003 12.0116C17.0041 14.5897 16.806 15.8788 15.8815 16.6478C14.9569 17.4168 13.6052 17.4168 10.9017 17.4168H9.09861C6.39517 17.4168 5.04347 17.4168 4.11887 16.6478C3.19428 15.8788 2.99618 14.5897 2.6 12.0116L2.36168 10.4608Z" stroke="white" stroke-width="1.2" stroke-linejoin="round"/>
</svg>
