<svg width="22" height="22" viewBox="0 0 22 22" fill="none" xmlns="http://www.w3.org/2000/svg">
<path d="M4.71432 9.82122C4.71432 9.30026 4.92127 8.80063 5.28965 8.43226C5.65802 8.06388 6.15765 7.85693 6.67861 7.85693C7.19957 7.85693 7.69919 8.06388 8.06757 8.43226C8.43594 8.80063 8.64289 9.30026 8.64289 9.82122C8.64289 10.3422 8.43594 10.8418 8.06757 11.2102C7.69919 11.5786 7.19957 11.7855 6.67861 11.7855C6.15765 11.7855 5.65802 11.5786 5.28965 11.2102C4.92127 10.8418 4.71432 10.3422 4.71432 9.82122ZM6.67861 9.03551C6.47022 9.03551 6.27037 9.11829 6.12302 9.26564C5.97567 9.41299 5.89289 9.61284 5.89289 9.82122C5.89289 10.0296 5.97567 10.2295 6.12302 10.3768C6.27037 10.5242 6.47022 10.6069 6.67861 10.6069C6.88699 10.6069 7.08684 10.5242 7.23419 10.3768C7.38154 10.2295 7.46432 10.0296 7.46432 9.82122C7.46432 9.61284 7.38154 9.41299 7.23419 9.26564C7.08684 9.11829 6.88699 9.03551 6.67861 9.03551ZM6.67861 13.3569C6.15765 13.3569 5.65802 13.5639 5.28965 13.9323C4.92127 14.3006 4.71432 14.8003 4.71432 15.3212C4.71432 15.8422 4.92127 16.3418 5.28965 16.7102C5.65802 17.0786 6.15765 17.2855 6.67861 17.2855C7.19957 17.2855 7.69919 17.0786 8.06757 16.7102C8.43594 16.3418 8.64289 15.8422 8.64289 15.3212C8.64289 14.8003 8.43594 14.3006 8.06757 13.9323C7.69919 13.5639 7.19957 13.3569 6.67861 13.3569ZM5.89289 15.3212C5.89289 15.1128 5.97567 14.913 6.12302 14.7656C6.27037 14.6183 6.47022 14.5355 6.67861 14.5355C6.88699 14.5355 7.08684 14.6183 7.23419 14.7656C7.38154 14.913 7.46432 15.1128 7.46432 15.3212C7.46432 15.5296 7.38154 15.7295 7.23419 15.8768C7.08684 16.0242 6.88699 16.1069 6.67861 16.1069C6.47022 16.1069 6.27037 16.0242 6.12302 15.8768C5.97567 15.7295 5.89289 15.5296 5.89289 15.3212ZM10.2143 9.62479C10.2143 9.4685 10.2764 9.31862 10.3869 9.2081C10.4974 9.09759 10.6473 9.03551 10.8036 9.03551H16.6965C16.8528 9.03551 17.0026 9.09759 17.1132 9.2081C17.2237 9.31862 17.2858 9.4685 17.2858 9.62479C17.2858 9.78108 17.2237 9.93097 17.1132 10.0415C17.0026 10.152 16.8528 10.2141 16.6965 10.2141H10.8036C10.6473 10.2141 10.4974 10.152 10.3869 10.0415C10.2764 9.93097 10.2143 9.78108 10.2143 9.62479ZM10.8036 14.5355C10.6473 14.5355 10.4974 14.5976 10.3869 14.7081C10.2764 14.8186 10.2143 14.9685 10.2143 15.1248C10.2143 15.2811 10.2764 15.431 10.3869 15.5415C10.4974 15.652 10.6473 15.7141 10.8036 15.7141H16.6965C16.8528 15.7141 17.0026 15.652 17.1132 15.5415C17.2237 15.431 17.2858 15.2811 17.2858 15.1248C17.2858 14.9685 17.2237 14.8186 17.1132 14.7081C17.0026 14.5976 16.8528 14.5355 16.6965 14.5355H10.8036ZM4.71432 5.69622C4.71432 5.53993 4.77641 5.39004 4.88692 5.27953C4.99743 5.16902 5.14732 5.10693 5.30361 5.10693H16.6965C16.8528 5.10693 17.0026 5.16902 17.1132 5.27953C17.2237 5.39004 17.2858 5.53993 17.2858 5.69622C17.2858 5.85251 17.2237 6.00239 17.1132 6.11291C17.0026 6.22342 16.8528 6.28551 16.6965 6.28551H5.30361C5.14732 6.28551 4.99743 6.22342 4.88692 6.11291C4.77641 6.00239 4.71432 5.85251 4.71432 5.69622ZM5.30361 2.35693C4.52217 2.35693 3.77273 2.66736 3.22017 3.21992C2.6676 3.77249 2.35718 4.52192 2.35718 5.30336V16.6962C2.35718 17.4777 2.6676 18.2271 3.22017 18.7797C3.77273 19.3322 4.52217 19.6426 5.30361 19.6426H16.6965C17.4779 19.6426 18.2273 19.3322 18.7799 18.7797C19.3325 18.2271 19.6429 17.4777 19.6429 16.6962V5.30336C19.6429 4.52192 19.3325 3.77249 18.7799 3.21992C18.2273 2.66736 17.4779 2.35693 16.6965 2.35693H5.30361ZM3.53575 5.30336C3.53575 4.8345 3.72201 4.38484 4.05354 4.0533C4.38508 3.72176 4.83474 3.53551 5.30361 3.53551H16.6965C17.1653 3.53551 17.615 3.72176 17.9465 4.0533C18.2781 4.38484 18.4643 4.8345 18.4643 5.30336V16.6962C18.4643 17.1651 18.2781 17.6147 17.9465 17.9463C17.615 18.2778 17.1653 18.4641 16.6965 18.4641H5.30361C4.83474 18.4641 4.38508 18.2778 4.05354 17.9463C3.72201 17.6147 3.53575 17.1651 3.53575 16.6962V5.30336Z" fill="#27393A"/>
</svg>
