<svg width="30" height="30" viewBox="0 0 30 30" fill="none" xmlns="http://www.w3.org/2000/svg">
<path d="M14.9573 29.25C12.9961 29.25 11.1488 28.8753 9.41562 28.1258C7.6824 27.3753 6.17295 26.3567 4.88728 25.07C3.60162 23.7833 2.58301 22.2738 1.83145 20.5417C1.0799 18.8095 0.705173 16.9623 0.707284 15C0.707284 13.0324 1.08201 11.1836 1.83145 9.45358C2.58195 7.72247 3.60056 6.21461 4.88728 4.93C6.17401 3.64539 7.68345 2.62678 9.41562 1.87417C11.1488 1.12472 12.9961 0.75 14.9573 0.75C16.9248 0.75 18.7736 1.12472 20.5037 1.87417C22.2348 2.62467 23.7432 3.64328 25.0289 4.93C26.3145 6.21672 27.3326 7.72458 28.0831 9.45358C28.8326 11.1847 29.2073 13.0335 29.2073 15C29.2073 16.9612 28.8326 18.8084 28.0831 20.5417C27.3326 22.2749 26.314 23.7843 25.0273 25.07C23.7406 26.3557 22.2327 27.3743 20.5037 28.1258C18.7747 28.8774 16.9259 29.2521 14.9573 29.25ZM14.9573 27.6793C15.8862 26.4855 16.6525 25.3133 17.2563 24.1628C17.859 23.0122 18.3493 21.7244 18.7272 20.2994H11.1874C11.6064 21.8046 12.1068 23.1325 12.6884 24.2831C13.271 25.4336 14.0273 26.5657 14.9573 27.6793ZM12.9417 27.4418C12.2028 26.571 11.5283 25.4943 10.9182 24.2118C10.3081 22.9304 9.8542 21.6257 9.55653 20.2978H3.48445C4.39223 22.2664 5.67842 23.8814 7.34303 25.1428C9.0087 26.4032 10.8749 27.1695 12.9417 27.4418ZM16.9729 27.4418C19.0396 27.1695 20.9059 26.4032 22.5715 25.1428C24.2361 23.8814 25.5223 22.2664 26.4301 20.2978H20.3596C19.9585 21.6458 19.4534 22.9605 18.8444 24.2419C18.2343 25.5244 17.6104 26.5921 16.9729 27.4418ZM2.83845 18.7161H9.2272C9.10687 18.0659 9.02242 17.4325 8.97387 16.8161C8.9232 16.2007 8.89787 15.5953 8.89787 15C8.89787 14.4047 8.92267 13.7993 8.97229 13.1839C9.0219 12.5685 9.10634 11.9352 9.22562 11.2839H2.84003C2.66798 11.8328 2.5334 12.4308 2.43628 13.0778C2.33917 13.7238 2.29062 14.3646 2.29062 15C2.29062 15.6354 2.33865 16.2767 2.4347 16.9237C2.53076 17.5708 2.66534 18.1677 2.83845 18.7145M10.8105 18.7145H19.104C19.2244 18.0653 19.3088 17.4426 19.3574 16.8462C19.408 16.2508 19.4334 15.6354 19.4334 15C19.4334 14.3646 19.4086 13.7492 19.359 13.1538C19.3093 12.5585 19.2249 11.9357 19.1056 11.2855H10.809C10.6897 11.9347 10.6052 12.5574 10.5556 13.1538C10.506 13.7492 10.4812 14.3646 10.4812 15C10.4812 15.6354 10.506 16.2508 10.5556 16.8462C10.6052 17.4415 10.6913 18.0643 10.8105 18.7145ZM20.689 18.7145H27.0761C27.2482 18.1667 27.3828 17.5697 27.4799 16.9237C27.5759 16.2767 27.624 15.6354 27.624 15C27.624 14.3646 27.5759 13.7233 27.4799 13.0763C27.3838 12.4292 27.2492 11.8323 27.0761 11.2855H20.6874C20.8077 11.9347 20.8921 12.5675 20.9407 13.1839C20.9914 13.8004 21.0167 14.4057 21.0167 15C21.0167 15.5943 20.9919 16.1996 20.9423 16.8161C20.8927 17.4325 20.8082 18.0659 20.689 18.7161M20.3596 9.70217H26.4301C25.5023 7.69239 24.2314 6.07739 22.6175 4.85717C21.0035 3.63694 19.122 2.86058 16.9729 2.52808C17.7118 3.50025 18.3762 4.61228 18.9663 5.86417C19.5563 7.115 20.0208 8.39433 20.3596 9.70217ZM11.1874 9.70217H18.7272C18.3092 8.21595 17.7936 6.87222 17.1803 5.671C16.567 4.46978 15.826 3.353 14.9573 2.32067C14.0886 3.35194 13.3476 4.46872 12.7343 5.671C12.121 6.87328 11.6043 8.217 11.1874 9.70217ZM3.48603 9.70217H9.55653C9.89537 8.39539 10.3598 7.11606 10.9499 5.86417C11.5399 4.61228 12.2044 3.50025 12.9433 2.52808C10.7752 2.86164 8.8889 3.64275 7.28445 4.87142C5.68001 6.10219 4.41334 7.71192 3.48445 9.70058" fill="#FCFDFD"/>
</svg>
