<svg width="61" height="60" viewBox="0 0 61 60" fill="none" xmlns="http://www.w3.org/2000/svg">
<path opacity="0.21" d="M37.5 0C50.2025 0 60.5 10.2975 60.5 23V37C60.5 49.7025 50.2025 60 37.5 60H23.5C10.7975 60 0.5 49.7025 0.5 37V23C0.5 10.2975 10.7975 0 23.5 0H37.5Z" fill="#FEC53D"/>
<path fill-rule="evenodd" clip-rule="evenodd" d="M15.5 24.3162L28.4005 31.7643C28.5394 31.8445 28.6851 31.9024 28.8333 31.9392V46.3844L16.4201 39.0382C15.8498 38.7007 15.5 38.0873 15.5 37.4246V24.3162ZM45.5 24.1182V37.4246C45.5 38.0873 45.1502 38.7007 44.5799 39.0382L32.1667 46.3844V31.8126C32.1969 31.7975 32.2269 31.7814 32.2566 31.7643L45.5 24.1182Z" fill="#FEC53D"/>
<path opacity="0.499209" fill-rule="evenodd" clip-rule="evenodd" d="M15.9053 20.7014C16.0628 20.5024 16.2617 20.3343 16.4936 20.2108L29.6186 13.2201C30.1696 12.9266 30.8305 12.9266 31.3815 13.2201L44.5065 20.2108C44.6852 20.306 44.8444 20.4277 44.9801 20.5697L30.5899 28.8778C30.4953 28.9325 30.4081 28.995 30.3286 29.064C30.2491 28.995 30.1618 28.9325 30.0672 28.8778L15.9053 20.7014Z" fill="#FEC53D"/>
</svg>
